<?xml version="1.0" encoding="UTF-8"?>
<svg id="Camada_1" xmlns="http://www.w3.org/2000/svg" version="1.1" xmlns:xlink="http://www.w3.org/1999/xlink" viewBox="0 0 1200 800">
  <!-- Generator: Adobe Illustrator 29.8.3, SVG Export Plug-In . SVG Version: 2.1.1 Build 3)  -->
  <defs>
    <style>
      .st0 {
        fill: #1a1a2e;
        font-size: 36px;
      }

      .st0, .st1, .st2, .st3, .st4, .st5, .st6 {
        isolation: isolate;
      }

      .st0, .st6 {
        font-family: Arial-BoldMT, Arial;
        font-weight: 700;
      }

      .st1 {
        opacity: .9;
      }

      .st1, .st6 {
        fill: #fff;
      }

      .st7 {
        fill: none;
        stroke: #fcd700;
        stroke-width: 4px;
      }

      .st8, .st2 {
        fill: #009ee3;
      }

      .st9 {
        fill: url(#Gradiente_sem_nome);
      }

      .st2 {
        opacity: .3;
      }

      .st10 {
        fill: #f8f9fa;
      }

      .st3 {
        fill: #495057;
        font-size: 20px;
      }

      .st3, .st5 {
        font-family: ArialMT, Arial;
      }

      .st4 {
        fill: #fff3cd;
        opacity: .7;
      }

      .st5 {
        fill: #856404;
        font-size: 18px;
      }

      .st6 {
        font-size: 28px;
      }
    </style>
    <linearGradient id="Gradiente_sem_nome" data-name="Gradiente sem nome" x1="178.9" y1="697.4" x2="179.9" y2="696.4" gradientTransform="translate(-214621 557922.5) scale(1200 -800)" gradientUnits="userSpaceOnUse">
      <stop offset="0" stop-color="#009ee3"/>
      <stop offset="1" stop-color="#0075ad"/>
    </linearGradient>
  </defs>
  <rect class="st9" y="0" width="1200" height="800"/>
  <rect class="st1" x="50" y="50" width="1100" height="700" rx="10" ry="10"/>
  <rect class="st8" x="50" y="50" width="1100" height="80" rx="10" ry="10"/>
  <text class="st6" transform="translate(456.1 100)"><tspan x="0" y="0">Sistema Orion Kaizen</tspan></text>
  <text class="st0" transform="translate(100 180)"><tspan x="0" y="0">Catalogo de Produtos</tspan></text>
  <line class="st7" x1="100" y1="200" x2="400" y2="200"/>
  <text class="st3" transform="translate(100 250)"><tspan x="0" y="0">Produtos disponiveis para resgate com pontos</tspan></text>
  <rect class="st10" x="100" y="300" width="1000" height="60" rx="5" ry="5"/>
  <rect class="st10" x="100" y="380" width="1000" height="60" rx="5" ry="5"/>
  <rect class="st10" x="100" y="460" width="1000" height="60" rx="5" ry="5"/>
  <circle class="st2" cx="130" cy="330" r="20"/>
  <circle class="st2" cx="130" cy="410" r="20"/>
  <circle class="st2" cx="130" cy="490" r="20"/>
  <rect class="st4" x="100" y="600" width="1000" height="100" rx="5" ry="5"/>
  <text class="st5" transform="translate(527 640)"><tspan x="0" y="0">Imagem ilustrativa</tspan></text>
</svg>